<svg xmlns="http://www.w3.org/2000/svg" viewBox="0 0 103.99 50"><defs><style>.cls-1{fill:#1f478e;}.cls-2{fill:#fff;}.cls-3{fill:none;stroke:#1f478e;stroke-linecap:round;stroke-linejoin:round;}.cls-4{fill:#f9b522;}</style></defs><title>Fichier 1</title><g id="Calque_2" data-name="Calque 2"><g id="Calque_1-2" data-name="Calque 1"><rect class="cls-1" width="103.99" height="50"/><polyline class="cls-2" points="15.89 33.09 23.76 36.84 19.92 38.25 11.87 34.32"/><polyline class="cls-3" points="15.89 33.09 23.76 36.84 19.92 38.25 11.87 34.32"/><path class="cls-4" d="M26.34,18.56a6.66,6.66,0,1,1-6.66-6.66,6.66,6.66,0,0,1,6.66,6.66"/><polygon class="cls-2" points="14.72 30.84 14.72 16.95 18.1 18.12 18.1 32.36 14.72 30.84"/><polygon class="cls-3" points="14.72 30.84 14.72 16.95 18.1 18.12 18.1 32.36 14.72 30.84"/><polygon class="cls-2" points="14.72 16.95 18.1 15.72 21.23 16.95 18.1 18.12 14.72 16.95"/><polygon class="cls-3" points="14.72 16.95 18.1 15.72 21.23 16.95 18.1 18.12 14.72 16.95"/><polyline class="cls-2" points="11.87 34.32 11.82 27.25 15.89 25.79 15.89 33.09"/><polyline class="cls-3" points="11.87 34.32 11.82 27.25 15.89 25.79 15.89 33.09"/><polygon class="cls-2" points="21.23 16.95 21.23 31.04 18.1 32.36 18.1 18.12 21.23 16.95"/><polygon class="cls-3" points="21.23 16.95 21.23 31.04 18.1 32.36 18.1 18.12 21.23 16.95"/><polygon class="cls-2" points="19.11 23 27.58 19.61 31.55 23.87 22.65 27.65 19.11 23"/><polygon class="cls-3" points="19.11 23 27.58 19.61 31.55 23.87 22.65 27.65 19.11 23"/><polygon class="cls-1" points="19.01 33.49 18.98 23 22.65 27.6 22.67 35.41 19.01 33.49"/><polygon class="cls-2" points="31.55 23.87 31.31 31.53 22.65 35.67 22.65 27.65 31.55 23.87"/><polygon class="cls-3" points="31.55 23.87 31.31 31.53 22.65 35.67 22.65 27.65 31.55 23.87"/><polygon class="cls-2" points="15.73 25.84 23.76 29.6 23.76 36.94 15.61 33.25 15.73 25.84"/><polygon class="cls-2" points="19.92 31.26 23.76 29.6 23.76 36.84 19.92 38.25 19.92 31.26"/><polygon class="cls-3" points="19.92 31.26 23.76 29.6 23.76 36.84 19.92 38.25 19.92 31.26"/><path class="cls-1" d="M28.91,26v2.25a0,0,0,0,0,.05,0l1.62-.76s0,0,0,0l.07-2.21a0,0,0,0,0-.06,0L28.93,26a.05.05,0,0,0,0,0"/><polygon class="cls-1" points="15.97 26.32 15.97 27.25 15.25 26.96 15.25 26.05 15.97 26.32"/><polygon class="cls-2" points="15.89 25.79 11.82 27.25 19.97 31.31 23.76 29.6 15.89 25.79"/><polygon class="cls-3" points="15.89 25.79 11.82 27.25 19.97 31.31 23.76 29.6 15.89 25.79"/><path class="cls-4" d="M14,35.22v-3a1.07,1.07,0,0,1,1.62-1c1.21.48,1.27,2.23,1.27,2.23l0,3.22Z"/><path class="cls-2" d="M35.72,24.68h-.94v-4.8c.47,0,1.07,0,1.6,0,1.65,0,2.52.47,2.52,1.67s-1,1.74-2.44,1.74h-.73Zm.67-2.36c.55,0,1.07,0,1.35-.29a.73.73,0,0,0,.18-.52.66.66,0,0,0-.15-.43c-.26-.28-.66-.31-1.39-.31h-.67v1.54h.68"/><path class="cls-2" d="M40.66,23.78h2.56v.93H40a.3.3,0,0,1-.32-.34V19.9h.94Z"/><path class="cls-2" d="M49.64,24.76h-.56c-.35,0-.47,0-.6-.32l-.26-.56-2.73,0-.41.86h-1l2.38-4.82h.92ZM47.81,23l-.92-2-1,2Z"/><path class="cls-2" d="M54.23,21.23a2.05,2.05,0,0,0-1.47-.49,1.59,1.59,0,1,0,.15,3.17,2.23,2.23,0,0,0,1.47-.65l.5.73a2.87,2.87,0,0,1-1.92.83,2.5,2.5,0,1,1-.25-5,2.79,2.79,0,0,1,2,.6Z"/><path class="cls-2" d="M59.73,19.92v.92H56.81v1h2.67v.92H56.82V23.8h3v.93H56.21a.31.31,0,0,1-.33-.34V19.93Z"/><path class="cls-2" d="M39,30.82a2.85,2.85,0,0,1-2.36.79c-.59,0-1.23,0-1.88-.06l.07-4.8H36.7a2.9,2.9,0,0,1,2.35.87,2.56,2.56,0,0,1,0,3.21m-.75-2.67a1.89,1.89,0,0,0-1.57-.47h-.93l0,3,.93,0a1.92,1.92,0,0,0,1.58-.44,1.47,1.47,0,0,0,.39-1,1.48,1.48,0,0,0-.36-1.06"/><path class="cls-2" d="M44.55,26.78v.93H41.63v1h2.68v.93H41.63v1.06h3v.93H41a.3.3,0,0,1-.32-.34V26.77Z"/><path class="cls-2" d="M47.9,27.54c-.59,0-1,.22-1,.56,0,.89,3,.29,3.08,2,0,.95-.88,1.54-2,1.58a4,4,0,0,1-2.19-.62l.45-.79a2.91,2.91,0,0,0,1.79.55c.46,0,1-.18,1-.58,0-1-3-.27-3.08-1.95,0-.89.83-1.57,2-1.6a3.53,3.53,0,0,1,1.94.51l-.45.79a2.6,2.6,0,0,0-1.48-.45"/><path class="cls-2" d="M55.19,27.54c-.59,0-1,.22-1,.56,0,.89,3,.29,3.08,2,0,.95-.88,1.54-2,1.58a4,4,0,0,1-2.19-.62l.45-.79a2.91,2.91,0,0,0,1.79.55c.46,0,1-.18,1-.58,0-1-3-.27-3.07-1.95,0-.89.82-1.57,2-1.6a3.58,3.58,0,0,1,2,.51l-.46.79a2.58,2.58,0,0,0-1.48-.45"/><path class="cls-2" d="M62.24,26.78v.93H59.32v1H62v.92H59.32v1.06h3v.92H58.7a.31.31,0,0,1-.32-.34V26.78Z"/><path class="cls-2" d="M68,31.58h-.78a.65.65,0,0,1-.59-.25l-1-1.29H64.45V31.6h-.94l0-4.8c.47,0,1.15,0,1.68,0a3,3,0,0,1,2.22.58,1.41,1.41,0,0,1,.38,1,1.47,1.47,0,0,1-1.16,1.54Zm-1.32-2.71a.64.64,0,0,0,.18-.49.62.62,0,0,0-.15-.41c-.27-.28-.73-.28-1.47-.28h-.75v1.46h.75c.56,0,1.16,0,1.43-.3"/><path class="cls-2" d="M72.49,26.78h1l-2.07,4.81h-.87L68.43,26.8H69c.35,0,.51.07.64.39L71,30.43Z"/><rect class="cls-2" x="74.5" y="26.78" width="0.94" height="4.8" transform="translate(-0.69 1.85) rotate(-1.41)"/><path class="cls-2" d="M80.72,28.08a2,2,0,0,0-1.47-.48,1.59,1.59,0,1,0,.16,3.16,2.16,2.16,0,0,0,1.46-.65l.51.73a2.83,2.83,0,0,1-1.93.83,2.5,2.5,0,1,1-.24-5,2.8,2.8,0,0,1,2,.59Z"/><path class="cls-2" d="M86.22,26.78v.92H83.31v1H86v.93H83.31v1.06h3v.93H82.7a.31.31,0,0,1-.32-.35V26.79Z"/><path class="cls-2" d="M89.58,27.54c-.59,0-1,.22-1,.56,0,.89,3,.29,3.08,2,0,.95-.88,1.54-2,1.58a4,4,0,0,1-2.19-.62l.45-.79a2.91,2.91,0,0,0,1.79.55c.46,0,1-.18,1-.58,0-1-3-.27-3.07-1.95,0-.89.82-1.57,1.95-1.6a3.58,3.58,0,0,1,2,.51l-.46.79a2.58,2.58,0,0,0-1.48-.45"/></g></g></svg>