<svg id="Calque_1" data-name="Calque 1" xmlns="http://www.w3.org/2000/svg" viewBox="0 0 447.18 215.01"><defs><style>.cls-1{fill:#1f478e;}.cls-2{fill:#fff;}.cls-3{fill:none;stroke:#1f478e;stroke-linecap:round;stroke-linejoin:round;}.cls-4{fill:#f9b522;}</style></defs><title>Sans titre - 2</title><rect class="cls-1" width="447.18" height="215.01"/><polyline class="cls-2" points="68.35 142.3 102.16 158.43 85.64 164.47 51.02 147.57"/><polyline class="cls-3" points="68.35 142.3 102.16 158.43 85.64 164.47 51.02 147.57"/><path class="cls-4" d="M139.64,98.8A28.64,28.64,0,1,1,111,70.17,28.64,28.64,0,0,1,139.64,98.8" transform="translate(-26.36 -18.99)"/><polygon class="cls-2" points="63.3 132.62 63.3 72.87 77.82 77.92 77.82 139.14 63.3 132.62"/><polygon class="cls-3" points="63.3 132.62 63.3 72.87 77.82 77.92 77.82 139.14 63.3 132.62"/><polygon class="cls-2" points="63.3 72.87 77.82 67.61 91.28 72.87 77.82 77.92 63.3 72.87"/><polygon class="cls-3" points="63.3 72.87 77.82 67.61 91.28 72.87 77.82 77.92 63.3 72.87"/><polyline class="cls-2" points="51.03 147.57 50.82 117.19 68.35 110.88 68.35 142.3"/><polyline class="cls-3" points="51.03 147.57 50.82 117.19 68.35 110.88 68.35 142.3"/><polygon class="cls-2" points="91.28 72.87 91.28 133.46 77.82 139.14 77.82 77.92 91.28 72.87"/><polygon class="cls-3" points="91.28 72.87 91.28 133.46 77.82 139.14 77.82 77.92 91.28 72.87"/><polygon class="cls-2" points="82.16 98.89 118.61 84.31 135.68 102.63 97.39 118.89 82.16 98.89"/><polygon class="cls-3" points="82.16 98.89 118.61 84.31 135.68 102.63 97.39 118.89 82.16 98.89"/><polygon class="cls-1" points="81.75 144.02 81.6 98.89 97.39 118.67 97.47 152.27 81.75 144.02"/><polygon class="cls-2" points="135.68 102.63 134.63 135.6 97.39 153.38 97.39 118.89 135.68 102.63"/><polygon class="cls-3" points="135.68 102.63 134.63 135.6 97.39 153.38 97.39 118.89 135.68 102.63"/><polygon class="cls-2" points="67.62 111.14 102.16 127.29 102.16 158.85 67.11 142.97 67.62 111.14"/><polygon class="cls-2" points="85.64 134.44 102.16 127.29 102.16 158.43 85.64 164.47 85.64 134.44"/><polygon class="cls-3" points="85.64 134.44 102.16 127.29 102.16 158.43 85.64 164.47 85.64 134.44"/><path class="cls-1" d="M150.67,130.79v9.67a.16.16,0,0,0,.23.15l6.95-3.27a.15.15,0,0,0,.1-.14l.28-9.51a.16.16,0,0,0-.23-.15l-7.23,3.1a.18.18,0,0,0-.1.15" transform="translate(-26.36 -18.99)"/><polygon class="cls-1" points="68.67 113.19 68.67 117.19 65.58 115.95 65.58 112.02 68.67 113.19"/><polygon class="cls-2" points="68.35 110.88 50.82 117.19 85.88 134.66 102.16 127.29 68.35 110.88"/><polygon class="cls-3" points="68.35 110.88 50.82 117.19 85.88 134.66 102.16 127.29 68.35 110.88"/><path class="cls-4" d="M86.65,170.45V157.5s.07-7,7-4.33c5.22,2,5.47,9.57,5.47,9.57l.13,13.84Z" transform="translate(-26.36 -18.99)"/><path class="cls-2" d="M180,125.11h-4l-.05-20.65c2-.06,4.61-.16,6.9-.16,7.06,0,10.81,2,10.82,7.19,0,5.81-4.43,7.45-10.51,7.47l-3.14,0ZM182.83,115c2.4,0,4.64,0,5.81-1.25a3.15,3.15,0,0,0,.78-2.24,3,3,0,0,0-.65-1.86c-1.13-1.21-2.82-1.32-6-1.31-.85,0-1.91,0-2.9,0l0,6.6c1,0,2,0,2.89,0" transform="translate(-26.36 -18.99)"/><path class="cls-2" d="M201.2,121.24h11v4H198.56a1.33,1.33,0,0,1-1.4-1.47l0-19.17h4Z" transform="translate(-26.36 -18.99)"/><path class="cls-2" d="M239.82,125.48l-2.4,0c-1.5,0-2-.11-2.58-1.35l-1.12-2.43L222,121.54l-1.79,3.72-4.34,0,10.25-20.73,3.93,0Zm-7.88-7.72L228,109.05l-4.14,8.62Z" transform="translate(-26.36 -18.99)"/><path class="cls-2" d="M259.56,110.27a8.83,8.83,0,0,0-6.33-2.08c-4.28.21-7.23,3-7,7.17s3.42,6.65,7.69,6.44A9.52,9.52,0,0,0,260.2,119l2.18,3.14a12.41,12.41,0,0,1-8.3,3.57c-7.22.36-11.76-4.23-12-10.15s3.78-10.94,11-11.3a12,12,0,0,1,8.43,2.57Z" transform="translate(-26.36 -18.99)"/><path class="cls-2" d="M283.2,104.64v4l-12.54,0v4.13l11.51,0v4l-11.5,0v4.57l12.9,0v4l-15.54,0a1.33,1.33,0,0,1-1.39-1.47l0-19.18Z" transform="translate(-26.36 -18.99)"/><path class="cls-2" d="M194.07,151.51c-2.52,2.68-5.58,3.49-10.16,3.43-2.54,0-5.27-.14-8.07-.26l.28-20.65c2.81-.05,5.54-.07,8.08,0,4.58.06,7.62,1,10.06,3.71a11,11,0,0,1-.19,13.81M190.85,140c-1.69-1.88-4-2-6.76-2-1.34,0-2.57,0-4,0l-.18,12.86c1.41,0,2.64.09,4,.11,2.78,0,5.07,0,6.81-1.88a7.12,7.12,0,0,0,.13-9" transform="translate(-26.36 -18.99)"/><path class="cls-2" d="M218,134.15v4l-12.55,0v4.13H216.9v4l-11.51,0v4.57l12.9,0v4l-15.54,0a1.34,1.34,0,0,1-1.39-1.48l0-19.16Z" transform="translate(-26.36 -18.99)"/><path class="cls-2" d="M232.32,137.43c-2.54.08-4.34.91-4.29,2.41.13,3.81,13,1.25,13.26,8.58.14,4.07-3.79,6.62-8.62,6.79a17.22,17.22,0,0,1-9.42-2.63l2-3.4a12.58,12.58,0,0,0,7.69,2.33c2-.07,4.26-.76,4.2-2.47-.13-4.13-13-1.19-13.22-8.41-.13-3.83,3.54-6.72,8.4-6.89a15.88,15.88,0,0,1,8.37,2.2l-2,3.4a11,11,0,0,0-6.37-1.91" transform="translate(-26.36 -18.99)"/><path class="cls-2" d="M263.68,137.43c-2.53.08-4.33.91-4.28,2.41.12,3.81,13,1.25,13.25,8.58.14,4.07-3.79,6.62-8.61,6.79a17.23,17.23,0,0,1-9.43-2.63l2-3.4a12.61,12.61,0,0,0,7.7,2.33c2-.07,4.26-.76,4.2-2.47-.14-4.13-13-1.19-13.22-8.41-.13-3.83,3.54-6.72,8.39-6.89a15.92,15.92,0,0,1,8.38,2.2l-2,3.4a11,11,0,0,0-6.37-1.91" transform="translate(-26.36 -18.99)"/><path class="cls-2" d="M294,134.17v4H281.47v4.13H293v4H281.46v4.57l12.9,0v4l-15.55,0a1.33,1.33,0,0,1-1.39-1.47l0-19.17Z" transform="translate(-26.36 -18.99)"/><path class="cls-2" d="M318.57,154.81h-3.35a2.84,2.84,0,0,1-2.57-1.08l-4.23-5.53-4.91,0,0,6.64-4,0-.09-20.65c2-.07,5-.17,7.24-.18,4.66,0,7.55.56,9.53,2.5a6.06,6.06,0,0,1,1.65,4.48c0,3.74-2,5.7-5,6.62Zm-5.69-11.66a2.9,2.9,0,0,0,.78-2.13,2.83,2.83,0,0,0-.66-1.76c-1.13-1.21-3.15-1.2-6.31-1.19-.85,0-2.24,0-3.22.05l0,6.28c1,0,2.37,0,3.22,0,2.42,0,5,0,6.16-1.27" transform="translate(-26.36 -18.99)"/><path class="cls-2" d="M338.07,134.14l4.31,0-8.88,20.69-3.74,0-9.12-20.59H323c1.5,0,2.18.31,2.76,1.69l5.87,14Z" transform="translate(-26.36 -18.99)"/><rect class="cls-2" x="346.72" y="134.15" width="4.04" height="20.65" transform="translate(-29.8 -10.38) rotate(-1.41)"/><path class="cls-2" d="M373.49,139.75a8.79,8.79,0,0,0-6.33-2.08c-4.28.21-7.22,3-7,7.17s3.41,6.65,7.69,6.44a9.48,9.48,0,0,0,6.3-2.8l2.18,3.15A12.41,12.41,0,0,1,368,155.2c-7.22.35-11.76-4.23-12-10.16s3.78-10.93,11-11.29a12,12,0,0,1,8.43,2.57Z" transform="translate(-26.36 -18.99)"/><path class="cls-2" d="M397.14,134.13v4l-12.54,0v4.13l11.51,0v4l-11.51,0v4.57l12.9,0v4l-15.55,0a1.33,1.33,0,0,1-1.39-1.47l0-19.18Z" transform="translate(-26.36 -18.99)"/><path class="cls-2" d="M411.57,137.43c-2.54.08-4.34.91-4.29,2.41.13,3.81,13,1.25,13.25,8.58.14,4.07-3.79,6.62-8.61,6.79a17.23,17.23,0,0,1-9.43-2.63l2-3.4a12.63,12.63,0,0,0,7.7,2.33c2-.07,4.26-.76,4.2-2.47-.14-4.13-13-1.19-13.22-8.41-.13-3.83,3.54-6.72,8.39-6.89a15.92,15.92,0,0,1,8.38,2.2l-2,3.4a11,11,0,0,0-6.37-1.91" transform="translate(-26.36 -18.99)"/></svg>